<svg xmlns="http://www.w3.org/2000/svg" xmlns:xlink="http://www.w3.org/1999/xlink" viewBox="0,0,256,256" width="50px" height="50px"><g transform="translate(-5.12,-5.12) scale(1.04,1.04)"><g fill="none" fill-rule="nonzero" stroke="none" stroke-width="1" stroke-linecap="butt" stroke-linejoin="miter" stroke-miterlimit="10" stroke-dasharray="" stroke-dashoffset="0" font-family="none" font-weight="none" font-size="none" text-anchor="none" style="mix-blend-mode: normal"><g transform="scale(2.56,2.56)"><circle cx="50" cy="50" r="30" fill-opacity="0.4902" fill="#4e6e91"></circle><path d="M50,83c-18.196,0 -33,-14.804 -33,-33c0,-18.196 14.804,-33 33,-33c18.196,0 33,14.804 33,33c0,18.196 -14.804,33 -33,33zM50,22c-15.439,0 -28,12.561 -28,28c0,15.439 12.561,28 28,28c15.439,0 28,-12.561 28,-28c0,-15.439 -12.561,-28 -28,-28z" fill-opacity="0.74118" fill="#66b6c1"></path><path d="M69.457,49.039c0,-3.321 -1.305,-6.334 -3.419,-8.573c0.396,-2.203 0.351,-5.301 -0.538,-7.966c-4.475,0 -8.114,3.447 -8.702,4h-12.804c-0.589,-0.552 -4.019,-4 -8.494,-4c-0.8,2.401 -1.087,5.233 -0.846,7.295c-2.518,2.286 -4.108,5.575 -4.108,9.245c0,6.908 5.599,12.459 12.507,12.459h2.447c-2.003,0.917 -3.635,2.756 -4,5c-2,0 -4.864,-0.182 -6.181,-2.158c-2.46,-3.69 -3.59,-3.69 -4.819,-3.69c-1.23,0 -1.33,1.23 -0.1,2.46c1.23,1.23 1.23,1.23 2.46,3.69c1.012,2.027 3.64,3.699 8.64,3.699v6.6c0,0 6.346,1.4 8.5,1.4c2.154,0 8.5,-1.4 8.5,-1.4v-9.445c0,-2.718 -1.681,-5.092 -4,-6.155h2.449c6.909,0 12.508,-5.553 12.508,-12.461z" fill="#eeecd9"></path><path d="M50,85c-19.299,0 -35,-15.701 -35,-35c0,-19.299 15.701,-35 35,-35c19.299,0 35,15.701 35,35c0,19.299 -15.701,35 -35,35zM50,17c-18.196,0 -33,14.804 -33,33c0,18.196 14.804,33 33,33c18.196,0 33,-14.804 33,-33c0,-18.196 -14.804,-33 -33,-33z" fill-opacity="0.8902" fill="#1f212b"></path><path d="M50,79c-15.99,0 -29,-13.009 -29,-29c0,-15.991 13.01,-29 29,-29c15.99,0 29,13.009 29,29c0,2.925 -0.435,5.812 -1.291,8.582c-0.082,0.263 -0.364,0.411 -0.625,0.33c-0.264,-0.082 -0.412,-0.361 -0.33,-0.625c0.827,-2.675 1.246,-5.462 1.246,-8.287c0,-15.439 -12.561,-28 -28,-28c-15.439,0 -28,12.561 -28,28c0,15.439 12.561,28 28,28c5.856,0 11.464,-1.788 16.217,-5.171c0.225,-0.16 0.536,-0.107 0.697,0.117c0.16,0.225 0.107,0.537 -0.117,0.697c-4.924,3.504 -10.732,5.357 -16.797,5.357z" fill-opacity="0.8902" fill="#1f212b"></path><path d="M68.631,72.068c-0.14,0 -0.279,-0.059 -0.378,-0.173c-0.181,-0.209 -0.158,-0.525 0.051,-0.706c0.739,-0.638 1.452,-1.324 2.122,-2.037c0.188,-0.202 0.505,-0.21 0.706,-0.023c0.201,0.189 0.212,0.505 0.023,0.707c-0.693,0.739 -1.433,1.449 -2.197,2.11c-0.095,0.082 -0.211,0.122 -0.327,0.122z" fill-opacity="0.8902" fill="#1f212b"></path><path d="M72.494,68.002c-0.107,0 -0.216,-0.035 -0.308,-0.105c-0.218,-0.17 -0.257,-0.484 -0.087,-0.702c1.649,-2.118 2.982,-4.452 3.963,-6.938c0.101,-0.258 0.392,-0.382 0.648,-0.282c0.257,0.102 0.383,0.392 0.281,0.648c-1.015,2.575 -2.396,4.993 -4.104,7.186c-0.097,0.127 -0.244,0.193 -0.393,0.193z" fill-opacity="0.8902" fill="#1f212b"></path><path d="M58.5,77.6c-0.276,0 -0.5,-0.224 -0.5,-0.5v-9.445c0,-2.431 -1.456,-4.668 -3.708,-5.701c-0.214,-0.098 -0.331,-0.332 -0.28,-0.561c0.05,-0.229 0.253,-0.393 0.488,-0.393h2.449c6.621,0 12.008,-5.366 12.008,-11.961c0,-3.064 -1.166,-5.987 -3.282,-8.229c-0.109,-0.115 -0.157,-0.275 -0.129,-0.432c0.333,-1.854 0.39,-4.725 -0.409,-7.37c-3.682,0.162 -6.795,2.725 -7.987,3.848c-0.093,0.087 -0.225,0.144 -0.352,0.144h-12.805c-0.127,0 -0.249,-0.048 -0.342,-0.135l-0.092,-0.087c-3.078,-2.927 -5.829,-3.686 -7.697,-3.77c-0.662,2.162 -0.941,4.762 -0.712,6.729c0.019,0.16 -0.042,0.319 -0.161,0.428c-2.506,2.275 -3.943,5.51 -3.943,8.875c0,6.595 5.387,11.96 12.007,11.96h2.447c0.235,0 0.438,0.164 0.488,0.394c0.051,0.229 -0.066,0.463 -0.28,0.561c-1.974,0.904 -3.397,2.676 -3.715,4.625c-0.039,0.242 -0.248,0.42 -0.493,0.42c-2.333,0 -5.191,-0.271 -6.598,-2.38c-2.311,-3.467 -3.28,-3.467 -4.403,-3.467c-0.14,0 -0.385,0.023 -0.448,0.178c-0.086,0.206 0.031,0.756 0.702,1.428c1.287,1.287 1.311,1.335 2.554,3.82c1.102,2.206 4.012,3.421 8.193,3.421c0.276,0 0.5,0.224 0.5,0.5v6.6c0,0.276 -0.224,0.5 -0.5,0.5c-0.276,0 -0.5,-0.224 -0.5,-0.5v-6.105c-5.797,-0.131 -7.866,-2.525 -8.588,-3.969c-1.194,-2.387 -1.194,-2.387 -2.366,-3.56c-0.869,-0.869 -1.213,-1.81 -0.919,-2.518c0.209,-0.505 0.709,-0.795 1.372,-0.795c1.588,0 2.81,0.272 5.235,3.912c1.069,1.604 3.359,1.9 5.356,1.932c0.362,-1.545 1.309,-2.965 2.63,-3.997h-0.668c-7.172,0 -13.007,-5.813 -13.007,-12.959c0,-3.562 1.485,-6.988 4.084,-9.442c-0.209,-2.203 0.128,-4.956 0.896,-7.257c0.069,-0.204 0.26,-0.342 0.475,-0.342c2.036,0 5.192,0.696 8.692,4h12.409c1.427,-1.311 4.847,-4 8.898,-4c0.215,0 0.406,0.138 0.475,0.342c0.935,2.802 0.928,5.901 0.598,7.965c2.185,2.404 3.385,5.495 3.385,8.732c0,7.147 -5.835,12.961 -13.008,12.961h-0.693c1.707,1.368 2.744,3.442 2.744,5.655v9.445c0,0.276 -0.224,0.5 -0.5,0.5z" fill-opacity="0.8902" fill="#1f212b"></path><path d="M34.238,45.97c-0.063,0 -0.127,-0.012 -0.188,-0.037c-0.256,-0.104 -0.379,-0.396 -0.274,-0.651c0.476,-1.167 1.167,-2.226 2.057,-3.148c0.192,-0.198 0.509,-0.204 0.707,-0.013c0.199,0.192 0.205,0.508 0.014,0.707c-0.802,0.831 -1.425,1.783 -1.852,2.831c-0.08,0.194 -0.266,0.311 -0.464,0.311z" fill-opacity="0.8902" fill="#1f212b"></path><path d="M33.66,51.021c-0.241,0 -0.454,-0.176 -0.493,-0.422c-0.08,-0.51 -0.121,-1.034 -0.121,-1.558c0,-0.533 0.042,-1.067 0.124,-1.59c0.044,-0.273 0.305,-0.459 0.572,-0.416c0.272,0.043 0.459,0.299 0.416,0.572c-0.074,0.471 -0.112,0.953 -0.112,1.434c0,0.472 0.037,0.943 0.109,1.402c0.043,0.273 -0.144,0.529 -0.416,0.572c-0.026,0.004 -0.052,0.006 -0.079,0.006z" fill-opacity="0.8902" fill="#1f212b"></path><path d="M41.457,58.914c-0.028,0 -0.057,-0.002 -0.085,-0.007c-3.442,-0.585 -6.372,-2.975 -7.646,-6.238c-0.101,-0.257 0.026,-0.547 0.284,-0.647c0.256,-0.101 0.547,0.027 0.647,0.284c1.146,2.938 3.783,5.089 6.882,5.615c0.271,0.046 0.455,0.305 0.409,0.577c-0.041,0.243 -0.252,0.416 -0.491,0.416z" fill-opacity="0.8902" fill="#1f212b"></path></g></g><g fill="#000000" fill-rule="nonzero" stroke="none" stroke-width="1" stroke-linecap="butt" stroke-linejoin="miter" stroke-miterlimit="10" stroke-dasharray="" stroke-dashoffset="0" font-family="none" font-weight="none" font-size="none" text-anchor="none" style="mix-blend-mode: normal"><g><path d="M40.719,230.085v8.68c-0.8,1.14667 -1.91667,2.00333 -3.35,2.57c-1.43333,0.57333 -3.10333,0.86 -5.01,0.86v0c-1.93333,0 -3.64667,-0.45333 -5.14,-1.36c-1.49333,-0.90667 -2.65,-2.19333 -3.47,-3.86c-0.81333,-1.66667 -1.23333,-3.6 -1.26,-5.8v0v-2.07c0,-3.56 0.83333,-6.32 2.5,-8.28c1.66,-1.96 3.99667,-2.94 7.01,-2.94v0c2.46667,0 4.45333,0.63 5.96,1.89c1.50667,1.26 2.42667,3.05 2.76,5.37v0h-3.12c-0.58,-3.13333 -2.44,-4.7 -5.58,-4.7v0c-2.09333,0 -3.68,0.73333 -4.76,2.2c-1.08,1.47333 -1.62333,3.6 -1.63,6.38v0v1.94c0,2.65333 0.60667,4.76333 1.82,6.33c1.21333,1.56 2.85333,2.34 4.92,2.34v0c1.17333,0 2.19667,-0.13 3.07,-0.39c0.88,-0.26 1.60667,-0.69667 2.18,-1.31v0v-5.32h-5.48v-2.53zM48.719,224.285v17.58h-3.01v-17.58zM45.469,219.615v0c0,-0.48667 0.15,-0.89667 0.45,-1.23c0.29333,-0.33333 0.73333,-0.5 1.32,-0.5c0.58667,0 1.03,0.16667 1.33,0.5c0.30667,0.33333 0.46,0.74333 0.46,1.23c0,0.49333 -0.15333,0.9 -0.46,1.22c-0.3,0.32667 -0.74333,0.49 -1.33,0.49c-0.58667,0 -1.02667,-0.16333 -1.32,-0.49c-0.3,-0.32 -0.45,-0.72667 -0.45,-1.22zM54.599,220.025h3.01v4.26h3.28v2.32h-3.28v10.91c0,0.7 0.14667,1.22667 0.44,1.58c0.29333,0.35333 0.79,0.53 1.49,0.53v0c0.34667,0 0.82333,-0.06667 1.43,-0.2v0v2.44c-0.78667,0.22 -1.55333,0.33 -2.3,0.33v0c-1.34667,0 -2.36,-0.40667 -3.04,-1.22c-0.68667,-0.81333 -1.03,-1.96667 -1.03,-3.46v0v-10.91h-3.2v-2.32h3.2zM67.409,216.905v9.51c1.33333,-1.64 3.06667,-2.46 5.2,-2.46v0c3.71333,0 5.58667,2.09667 5.62,6.29v0v11.62h-3.01v-11.63c-0.00667,-1.27333 -0.29667,-2.21333 -0.87,-2.82c-0.56667,-0.60667 -1.45,-0.91 -2.65,-0.91v0c-0.98,0 -1.83667,0.26 -2.57,0.78c-0.74,0.52 -1.31333,1.20333 -1.72,2.05v0v12.53h-3.01v-24.96zM93.649,241.865l-0.06,-1.74c-1.17333,1.38 -2.89333,2.07 -5.16,2.07v0c-1.87333,0 -3.3,-0.54667 -4.28,-1.64c-0.98,-1.08667 -1.47333,-2.69667 -1.48,-4.83v0v-11.44h3v11.36c0,2.66 1.08333,3.99 3.25,3.99v0c2.3,0 3.82667,-0.85333 4.58,-2.56v0v-12.79h3.01v17.58zM115.959,233.005v0.26c0,2.68667 -0.61667,4.84667 -1.85,6.48c-1.23333,1.63333 -2.89,2.45 -4.97,2.45v0c-2.22,0 -3.93667,-0.78667 -5.15,-2.36v0l-0.15,2.03h-2.76v-24.96h3v9.31c1.21333,-1.50667 2.88667,-2.26 5.02,-2.26c2.14,0 3.81667,0.80667 5.03,2.42c1.22,1.61333 1.83,3.82333 1.83,6.63zM112.959,232.925v0c0,-2.04667 -0.39667,-3.62667 -1.19,-4.74c-0.79333,-1.12 -1.93,-1.68 -3.41,-1.68v0c-1.98667,0 -3.41333,0.92333 -4.28,2.77v0v7.6c0.92,1.84 2.35667,2.76 4.31,2.76v0c1.44,0 2.56,-0.55667 3.36,-1.67c0.80667,-1.11333 1.21,-2.79333 1.21,-5.04zM130.209,218.205l-9.86,25.69h-2.58l9.88,-25.69zM149.259,241.865l-2.26,-6.17h-9.91l-2.23,6.17h-3.22l9.04,-23.66h2.73l9.05,23.66zM142.039,222.055l-4.01,11.07h8.04zM155.689,224.285l4.47,13.5l4.36,-13.5h3.07l-6.31,17.58h-2.29l-6.37,-17.58zM177.569,242.195v0c-2.38667,0 -4.32667,-0.78333 -5.82,-2.35c-1.49333,-1.56667 -2.24,-3.66 -2.24,-6.28v0v-0.56c0,-1.74 0.33333,-3.29667 1,-4.67c0.66,-1.36667 1.59,-2.44 2.79,-3.22c1.2,-0.77333 2.49667,-1.16 3.89,-1.16v0c2.28667,0 4.06333,0.75333 5.33,2.26c1.26667,1.50667 1.9,3.66333 1.9,6.47v0v1.25h-11.91c0.04667,1.73333 0.55333,3.13333 1.52,4.2c0.97333,1.06667 2.20667,1.6 3.7,1.6v0c1.06,0 1.96,-0.21667 2.7,-0.65c0.73333,-0.43333 1.37667,-1.00667 1.93,-1.72v0l1.84,1.43c-1.47333,2.26667 -3.68333,3.4 -6.63,3.4zM177.189,226.425v0c-1.21333,0 -2.23,0.44333 -3.05,1.33c-0.82667,0.88 -1.33667,2.11667 -1.53,3.71v0h8.81v-0.23c-0.08667,-1.52667 -0.5,-2.71 -1.24,-3.55c-0.73333,-0.84 -1.73,-1.26 -2.99,-1.26zM196.399,224.185v2.8c-0.45333,-0.08 -0.94667,-0.12 -1.48,-0.12v0c-1.97333,0 -3.31,0.84 -4.01,2.52v0v12.48h-3.01v-17.58h2.93l0.04,2.03c0.98667,-1.57333 2.38667,-2.36 4.2,-2.36v0c0.58,0 1.02333,0.07667 1.33,0.23zM212.519,241.865h-3.15c-0.17333,-0.34667 -0.31667,-0.96333 -0.43,-1.85v0c-1.39333,1.45333 -3.06,2.18 -5,2.18v0c-1.73333,0 -3.15667,-0.49333 -4.27,-1.48c-1.10667,-0.98 -1.66,-2.22 -1.66,-3.72v0c0,-1.83333 0.69667,-3.25667 2.09,-4.27c1.38667,-1.01333 3.34333,-1.52 5.87,-1.52v0h2.93v-1.38c0,-1.05333 -0.31667,-1.89 -0.95,-2.51c-0.62667,-0.62667 -1.55333,-0.94 -2.78,-0.94v0c-1.06667,0 -1.96333,0.27333 -2.69,0.82c-0.72667,0.54 -1.09,1.19333 -1.09,1.96v0h-3.02c0,-0.87333 0.31,-1.72 0.93,-2.54c0.62,-0.82 1.46667,-1.46667 2.54,-1.94c1.06667,-0.48 2.23667,-0.72 3.51,-0.72v0c2.02667,0 3.61333,0.50667 4.76,1.52c1.15333,1.01333 1.75,2.41 1.79,4.19v0v8.09c0,1.61333 0.20667,2.89667 0.62,3.85v0zM204.379,239.575v0c0.94,0 1.83333,-0.24333 2.68,-0.73c0.84667,-0.48667 1.46,-1.12 1.84,-1.9v0v-3.61h-2.36c-3.68667,0 -5.53,1.07667 -5.53,3.23v0c0,0.94667 0.31667,1.68333 0.95,2.21c0.62667,0.53333 1.43333,0.8 2.42,0.8zM219.619,216.905v9.51c1.33333,-1.64 3.06667,-2.46 5.2,-2.46v0c3.71333,0 5.58667,2.09667 5.62,6.29v0v11.62h-3v-11.63c-0.01333,-1.27333 -0.30333,-2.21333 -0.87,-2.82c-0.57333,-0.60667 -1.46,-0.91 -2.66,-0.91v0c-0.97333,0 -1.83,0.26 -2.57,0.78c-0.73333,0.52 -1.30667,1.20333 -1.72,2.05v0v12.53h-3.01v-24.96z"></path></g></g></g></svg>